<?xml version="1.0" standalone="no"?>
<!DOCTYPE svg PUBLIC "-//W3C//DTD SVG 20010904//EN"
 "http://www.w3.org/TR/2001/REC-SVG-20010904/DTD/svg10.dtd">
<svg version="1.0" xmlns="http://www.w3.org/2000/svg"
 width="260.000000pt" height="260.000000pt" viewBox="0 0 260.000000 260.000000"
 preserveAspectRatio="xMidYMid meet">
<metadata>
Created by potrace 1.11, written by Peter Selinger 2001-2013
</metadata>
<g transform="translate(0.000000,260.000000) scale(0.100000,-0.100000)"
fill="#000000" stroke="none">
<path d="M1195 2090 c-378 -53 -612 -300 -655 -691 -20 -182 20 -406 97 -539
102 -175 259 -292 460 -342 121 -30 322 -29 438 1 265 69 450 253 524 522 l20
69 -265 0 c-145 0 -264 -4 -264 -9 0 -18 -85 -103 -124 -124 -32 -17 -58 -22
-121 -22 -70 0 -86 4 -128 28 -55 32 -109 108 -127 177 -18 67 -17 215 3 280
21 72 68 134 125 168 41 23 58 27 127 27 63 0 89 -5 121 -22 39 -21 124 -106
124 -124 0 -5 119 -9 264 -9 l265 0 -20 73 c-73 263 -263 452 -520 516 -90 23
-259 33 -344 21z"/>
</g>
</svg>
