<?xml version="1.0" encoding="UTF-8"?><svg xmlns="http://www.w3.org/2000/svg" xmlns:xlink="http://www.w3.org/1999/xlink" viewBox="0 0 24 24" version="1.1"><path d="M12 2C6.477 2 2 6.477 2 12s4.477 10 10 10 10-4.477 10-10S17.523 2 12 2zm3.5 2a1.5 1.5 0 1 1 0 3 1.5 1.5 0 0 1 0-3zM12 5.5c.344 0 .68.04 1.008.09A2.496 2.496 0 0 0 15.5 8c.473 0 .906-.137 1.285-.363a6.495 6.495 0 0 1 1.61 3.218l-3.008.31A3.497 3.497 0 0 0 12 8.5c-.578 0-1.113.152-1.594.402L8.613 6.461A6.459 6.459 0 0 1 12 5.5zM4.5 14a1.5 1.5 0 1 1 0-3 1.5 1.5 0 0 1 0 3zm1.504.488a2.478 2.478 0 0 0-.277-4.152A6.5 6.5 0 0 1 7.8 7.046l1.785 2.43A3.492 3.492 0 0 0 8.5 12c0 1.238.648 2.32 1.621 2.941L8.86 17.687a6.532 6.532 0 0 1-2.855-3.199zM16.5 19a1.5 1.5 0 1 1 0-3 1.5 1.5 0 0 1 0 3zm1.11-3.73A2.474 2.474 0 0 0 16.5 15a2.497 2.497 0 0 0-2.5 2.5c0 .227.04.438.094.648A6.504 6.504 0 0 1 12 18.5a6.507 6.507 0 0 1-2.23-.402l1.265-2.75c.309.09.63.152.965.152a3.496 3.496 0 0 0 3.484-3.34l3.008-.308c0 .05.008.097.008.148a6.456 6.456 0 0 1-.89 3.27z" id="surface1"/><metadata><rdf:RDF xmlns:rdf="http://www.w3.org/1999/02/22-rdf-syntax-ns#" xmlns:rdfs="http://www.w3.org/2000/01/rdf-schema#" xmlns:dc="http://purl.org/dc/elements/1.1/"><rdf:Description about="https://iconscout.com/legal#licenses" dc:title="ubuntu" dc:description="ubuntu" dc:publisher="Iconscout" dc:date="2018-06-22" dc:format="image/svg+xml" dc:language="en"><dc:creator><rdf:Bag><rdf:li>Icons8</rdf:li></rdf:Bag></dc:creator></rdf:Description></rdf:RDF></metadata></svg>